<?xml version="1.0" encoding="UTF-8" standalone="no"?>
<!-- Created with Inkscape (http://www.inkscape.org/) -->

<svg
   xmlns:dc="http://purl.org/dc/elements/1.1/"
   xmlns:cc="http://creativecommons.org/ns#"
   xmlns:rdf="http://www.w3.org/1999/02/22-rdf-syntax-ns#"
   xmlns:svg="http://www.w3.org/2000/svg"
   xmlns="http://www.w3.org/2000/svg"
   xmlns:sodipodi="http://sodipodi.sourceforge.net/DTD/sodipodi-0.dtd"
   xmlns:inkscape="http://www.inkscape.org/namespaces/inkscape"
   width="93mm"
   height="60mm"
   viewBox="0 0 329.52756 212.59844"
   id="svg2"
   version="1.1"
   inkscape:version="0.91 r"
   sodipodi:docname="LogoICM.svg"
   shape-rendering="crispEdges">
  <defs
     id="defs4" />
  <sodipodi:namedview
     id="base"
     pagecolor="#ffffff"
     bordercolor="#666666"
     borderopacity="1.0"
     inkscape:pageopacity="0.0"
     inkscape:pageshadow="2"
     inkscape:zoom="0.32754465"
     inkscape:cx="361.13317"
     inkscape:cy="756.31722"
     inkscape:document-units="px"
     inkscape:current-layer="layer1"
     showgrid="false"
     inkscape:window-width="1920"
     inkscape:window-height="1028"
     inkscape:window-x="0"
     inkscape:window-y="0"
     inkscape:window-maximized="1" />
  <metadata
     id="metadata7">
    <rdf:RDF>
      <cc:Work
         rdf:about="">
        <dc:format>image/svg+xml</dc:format>
        <dc:type
           rdf:resource="http://purl.org/dc/dcmitype/StillImage" />
        <dc:title></dc:title>
      </cc:Work>
    </rdf:RDF>
  </metadata>
  <g
     inkscape:label="Layer 1"
     inkscape:groupmode="layer"
     id="layer1"
     transform="translate(0,-839.76377)">
    <path
       id="path4219"
       style="fill:#008670;fill-opacity:1"
       d="m 106.93833,927.14539 c -4.15677,-1.1191 -7.31271,-3.91106 -8.63021,-7.63488 -0.495231,-1.39972 -1.056871,-6.6 -0.712811,-6.6 0.10751,0 0.27,-0.45928 0.36109,-1.02063 0.268231,-1.65287 1.698891,-4.25485 3.121891,-5.67785 3.99909,-3.99909 11.10082,-4.98491 16.77671,-2.32884 2.57592,1.20542 4.13097,2.72272 5.37948,5.24893 2.43492,4.92672 1.80132,10.41902 -1.65492,14.34552 -1.37571,1.56289 -4.53432,3.31509 -6.85004,3.79999 -2.14903,0.44999 -5.86272,0.38696 -7.79119,-0.13224 z m 107.20525,44.94013 c -0.10582,-18.76875 -0.26649,-35.17126 -0.35704,-36.45001 l -0.16466,-2.325 11.09987,0 11.09986,0 0.16025,0.825 c 0.0881,0.45375 0.31772,2.3775 0.51018,4.275 0.19247,1.8975 0.46777,3.57744 0.61179,3.7332 0.15757,0.17042 1.1117,-0.63913 2.396,-2.03293 3.63276,-3.94249 7.52669,-6.30359 12.54607,-7.60737 3.67114,-0.95357 9.70216,-1.07137 13.22339,-0.25829 3.83091,0.88458 7.01193,2.61248 9.63365,5.23289 1.33311,1.33245 2.62805,2.96929 3.11109,3.9325 0.45509,0.9075 0.87867,1.70623 0.94129,1.77495 0.0626,0.0687 1.12992,-0.96874 2.37177,-2.30547 4.06783,-4.37863 8.32756,-6.99925 13.62313,-8.38105 3.92224,-1.02346 10.34414,-1.07983 13.96907,-0.12262 9.56694,2.52626 15.11502,9.53224 17.47053,22.06138 0.37626,2.00137 0.47871,6.71498 0.58899,27.09782 l 0.13353,24.67498 -12.92154,0 -12.92151,0 -0.005,-19.72498 c -0.003,-10.84875 -0.13399,-20.94701 -0.2914,-22.44057 -0.74589,-7.07715 -3.28357,-10.62809 -7.77683,-10.88198 -4.06595,-0.22975 -6.36376,1.12272 -8.27657,4.87152 l -1.2,2.3518 -0.084,22.91211 -0.084,22.9121 -12.8766,0 -12.87661,0 -0.11034,-21.97498 c -0.0798,-15.88848 -0.21051,-22.34892 -0.472,-23.325 -0.71503,-2.66913 -1.59961,-4.42713 -2.83729,-5.63882 -1.6277,-1.59352 -3.04305,-2.16188 -5.37459,-2.15825 -3.46201,0.005 -6.27685,1.99873 -7.99408,5.66106 l -0.79056,1.68601 -0.0857,22.875 -0.0856,22.87498 -12.856,0 -12.856,0 -0.1924,-34.12498 z m -35.5941,35.30268 c -3.7406,-0.2539 -9.53012,-1.4265 -12.43019,-2.5177 -7.00792,-2.6367 -12.82867,-7.10164 -16.57162,-12.71154 -1.69391,-2.53881 -3.631,-6.64011 -4.28145,-9.06486 -0.19675,-0.73347 -0.42758,-1.44787 -0.51294,-1.58754 -0.0854,-0.13968 -0.9507,1.25686 -1.92297,3.10343 -2.18152,4.1432 -3.54299,6.51985 -6.67203,11.64701 l -2.439,3.9965 -2.1,-0.1905 c -9.02914,-0.81897 -19.63108,-2.80879 -30.06843,-5.64338 l -3.53157,-0.9591 -0.0765,-29.025 -0.0765,-29.02501 13.3497,0 13.34969,0 0.0768,23.92501 0.0768,23.925 2.22977,-3.9 c 9.52435,-16.65863 16.92241,-36.31214 20.55279,-54.60001 5.23156,-26.35375 2.06174,-48.8182 -8.49289,-60.18889 -3.61228,-3.89157 -7.58942,-6.32621 -12.48967,-7.64567 -2.90165,-0.78131 -10.33166,-0.78735 -13.89461,-0.0113 -10.03958,2.18674 -20.62827,7.96826 -31.0505,16.95386 -3.38904,2.92189 -11.27348,10.94895 -14.33272,14.59199 -1.24702,1.485 -3.45175,4.2525 -4.89939,6.15001 -1.44764,1.8975 -2.83644,3.49658 -3.08623,3.55351 -0.67645,0.15417 0.0721,-1.00183 4.41345,-6.81572 18.51115,-24.78992 39.61799,-41.11091 58.95,-45.58345 12.83686,-2.96985 23.44642,-0.30087 31.29284,7.87214 6.76798,7.04968 10.6003,16.43815 12.56159,30.77351 0.71666,5.23816 0.71398,19.3138 -0.005,25.80001 -0.88991,8.02932 -2.46478,16.89652 -4.28221,24.11072 -0.41024,1.62839 -0.68579,3.02081 -0.61234,3.09426 0.0734,0.0734 1.05862,-0.33211 2.18928,-0.90122 6.73492,-3.39002 15.07286,-4.94894 24.68893,-4.61603 6.61805,0.22912 14.15711,1.61946 14.3421,2.64495 0.0927,0.51393 -3.37104,18.81308 -3.60539,19.04744 -0.0927,0.0927 -0.42343,0.0321 -0.735,-0.13468 -2.53104,-1.35457 -12.41944,-1.87905 -15.83489,-0.83987 -5.98236,1.82017 -10.13567,6.3584 -11.43469,12.49444 -0.34048,1.60833 -0.43019,3.11733 -0.31455,5.29132 0.51785,9.73489 6.4088,15.66162 16.39487,16.49442 2.71761,0.22665 7.53215,-0.28227 10.53021,-1.11307 1.18295,-0.32781 2.21593,-0.5309 2.29552,-0.45131 0.16518,0.16518 2.7635,17.68072 2.77265,18.69062 0.0125,1.3828 -6.99764,2.925 -15.44401,3.3976 -2.64,0.1477 -4.935,0.254 -5.1,0.2361 -0.165,-0.018 -1.86142,-0.1385 -3.76981,-0.268 z m -119.429551,44.2593 c -3.30612,-0.515 -6.59424,-1.6195 -9.84204,-3.3058 -12.377,-6.4266 -20.45246,-21.2033 -22.67591,-41.4931 -0.45151,-4.1201 -0.71478,-16.356 -0.35956,-16.71122 0.0932,-0.0932 0.85495,0.27888 1.69277,0.82684 1.24166,0.81209 1.52431,1.15558 1.5287,1.8578 0.0215,3.43431 2.09209,12.99558 3.74491,17.29248 2.30609,5.9954 4.67079,9.8699 8.39001,13.7468 5.95192,6.2044 12.32722,8.8893 21.02047,8.8527 9.18873,-0.039 18.91923,-3.8924 29.15335,-11.5457 3.20796,-2.3991 9.174431,-7.48 8.994681,-7.6598 -0.0472,-0.047 -2.50729,-0.4939 -5.466911,-0.9928 -38.15681,-6.4318 -74.21336,-28.35714 -87.3949399,-53.1432 -3.98229,-7.48811 -5.64461,-14.81734 -4.87071,-21.47507 0.45132,-3.8826 1.2104,-6.38892 2.97259,-9.81495 5.8235399,-11.322 19.3311699,-18.65878 38.7806699,-21.06404 4.90645,-0.60676 17.58802,-0.68611 22.93127,-0.14348 5.15202,0.52322 12.27701,1.65441 17.11395,2.71709 4.52733,0.99466 12.20574,3.04878 12.03495,3.21957 -0.0582,0.0582 -1.78045,-0.29433 -3.82732,-0.78329 -9.70875,-2.31925 -17.0311,-3.16254 -27.27158,-3.14077 -6.64212,0.0141 -8.6556,0.12578 -12.23906,0.67878 -13.93488,2.15041 -23.91576,6.97114 -29.83077,14.40816 -4.25894,5.3548 -6.17495,11.93268 -5.39991,18.53849 1.5614,13.30809 11.5532,26.95321 28.75627,39.27045 11.67564,8.35965 28.90053,15.99024 44.66347,19.78586 9.247071,2.2266 22.889311,4.5238 31.924351,5.3756 2.70839,0.2554 4.96216,0.5021 5.00837,0.5483 0.16913,0.1692 -5.68384,7.6838 -9.19016,11.7992 -4.60733,5.4078 -12.57217,13.2298 -17.42734,17.1148 -13.088061,10.4727 -25.714821,15.7842 -37.261931,15.6743 -1.67931,-0.016 -4.223,-0.2113 -5.65264,-0.434 z"
       inkscape:connector-curvature="0" />
  </g>
</svg>
